PathFileType	4	(x/y/z)	S09_M20_T02
DataRate	CameraRate	NumFrames	NumMarkers	Units	OrigDataRate	OrigDataStartFrame	OrigNumFrames
240	240	5	51	mm	240	483	551
Frame#	Time	Sternum			R.Acromium			L.Acromium			Top.Head			R.ASIS			L.ASIS			R.PSIS			L.PSIS			R.Great.Tro			L.Great.Tro			R.Iliac.Crest			L.Iliac.Crest			V.Sacral			R.Thigh.Upper.Post			R.Thigh.Lower.Ant			R.Thigh.Lower.Post			R.Thigh.Upper.Ant			R.Knee.Lat			R.Knee.Med			R.Shank.Upper.Post			R.Shank.Lower.Ant			R.Shank.Lower.Post			R.Shank.Upper.Ant			R.Ankle.Lat			R.Ankle.Med			R.Heel.Upper			R.Heel.Med			R.Heel.Lat			R.Toe.Lat			R.Toe.Med			R.Toe.Tip			L.Thigh.Upper.Post			L.Thigh.Lower.Ant			L.Thigh.Lower.Post			L.Thigh.Upper.Ant			L.Knee.Lat			L.Knee.Med			L.Shank.Upper.Post			L.Shank.Lower.Ant			L.Shank.Lower.Post			L.Shank.Upper.Ant			L.Ankle.Lat			L.Ankle.Med			L.Heel.Upper			L.Heel.Med			L.Heel.Lat			L.Toe.Lat			L.Toe.Med			L.Toe.Tip			Cervical.Spine			Back			
		X1	Y1	Z1	X2	Y2	Z2	X3	Y3	Z3	X4	Y4	Z4	X5	Y5	Z5	X6	Y6	Z6	X7	Y7	Z7	X8	Y8	Z8	X9	Y9	Z9	X10	Y10	Z10	X11	Y11	Z11	X12	Y12	Z12	X13	Y13	Z13	X14	Y14	Z14	X15	Y15	Z15	X16	Y16	Z16	X17	Y17	Z17	X18	Y18	Z18	X19	Y19	Z19	X20	Y20	Z20	X21	Y21	Z21	X22	Y22	Z22	X23	Y23	Z23	X24	Y24	Z24	X25	Y25	Z25	X26	Y26	Z26	X27	Y27	Z27	X28	Y28	Z28	X29	Y29	Z29	X30	Y30	Z30	X31	Y31	Z31	X32	Y32	Z32	X33	Y33	Z33	X34	Y34	Z34	X35	Y35	Z35	X36	Y36	Z36	X37	Y37	Z37	X38	Y38	Z38	X39	Y39	Z39	X40	Y40	Z40	X41	Y41	Z41	X42	Y42	Z42	X43	Y43	Z43	X44	Y44	Z44	X45	Y45	Z45	X46	Y46	Z46	X47	Y47	Z47	X48	Y48	Z48	X49	Y49	Z49	X50	Y50	Z50	X51	Y51	Z51	

483	2.0083	1658.2	1171.1	296.66	1534.5	1422.9	445.59	1539.1	1421.9	135.64	1608.9	1715.3	283.52	1622.4	1011.3	396.64	1610.1	1014.8	148.98	1397.5	1025.4	331.5	1400.6	1034.3	241.34	1552.9	920.49	474.45	1534.3	922.93	86.273	1529.9	1083.5	449.21	1497.2	1106.9	120.57	1379.2	995.24	280.29	1645.7	685.99	461.38	1749.9	621.21	421.38	1676	598.58	437.12	1713.9	701.92	444.61	1758.8	545.6	419.64	1753	525.46	294.98	1749.5	363.02	439.92	1833.2	328.77	431.42	1773.4	290.28	435.62	1804.7	396.69	437.85	1866.5	121.17	431.41	1892.7	140.22	346.57	1818.9	74.253	376.62	1843.9	50.203	349.08	1832.2	47.445	412.84	1979.5	102.28	472.3	2023.1	132.35	373.08	2055.9	165.13	419.36	1442.5	675.07	158.92	1510.9	569.04	162.6	1445.8	587.04	182.9	1507.7	654.45	134.6	1481.5	491.95	180	1510.5	509.99	309.36	1399.2	374.13	180.25	1437.3	271.86	199.92	1379.3	300.67	193.97	1456.7	346.79	187.57	1343.1	109.1	233.31	1358.1	103.07	325.67	1266.3	79.747	288.75	1277.4	52.333	319.02	1262.9	53.259	259.12	1432.5	42.656	195.72	1475.5	36.424	301.86	1525.2	48.87	240.5	1460.8	1474.9	296.65	1398.9	1210.6	281.09
484	2.0125	1663.1	1170.4	296.5	1539.8	1422.1	445.75	1544.1	1421.1	135.76	1614.3	1714.4	283.64	1628	1010.6	396.42	1614.8	1014.2	148.77	1402.8	1024.4	331.92	1405.6	1033.5	241.76	1558.6	919.65	474.34	1538.7	922.38	86.201	1535.4	1082.6	449.29	1501.5	1106.2	120.63	1384.3	994.33	280.74	1651	685.04	461.28	1755	620.15	421.04	1681.1	597.6	436.94	1719.2	700.9	444.33	1764.1	544.93	419.31	1758.1	524.7	294.49	1757.9	362.22	439.25	1842.3	329.61	430.71	1783.2	289.95	434.84	1812.5	396.95	437.28	1879.9	122.5	430.17	1905.6	142.46	345.45	1833.1	74.83	375.31	1858.7	51.421	347.64	1847.1	48.139	411.36	1993.3	105.7	470.85	2036.1	137.25	371.86	2068.2	170.49	418.27	1446.1	674.95	159.15	1513.9	568.62	162.57	1449.1	586.89	183.1	1511.1	654.08	134.61	1484.3	491.62	179.97	1513.8	509.48	309.2	1401.2	374.27	180.32	1438.7	271.77	199.87	1381	300.92	194.2	1458.6	346.57	187.5	1343.6	109.52	233.47	1358.6	103.44	325.78	1266.5	80.24	289.04	1277.6	52.716	319.23	1263.1	53.761	259.32	1432.6	42.631	195.75	1475.6	36.361	301.83	1525.4	48.507	240.4	1466	1474.2	296.89	1403.9	1209.9	281.47
485	2.0167	1668	1169.6	296.35	1545.1	1421.4	445.91	1549	1420.4	135.89	1619.6	1713.5	283.77	1633.6	1009.9	396.21	1619.5	1013.6	148.57	1408.1	1023.4	332.34	1410.6	1032.6	242.19	1564.4	918.81	474.22	1543	921.81	86.138	1541	1081.7	449.39	1505.8	1105.5	120.71	1389.4	993.41	281.19	1656.3	684.11	461.2	1760.2	619.08	420.7	1686.3	596.63	436.77	1724.5	699.88	444.05	1769.3	544.24	419	1763.2	523.93	294.03	1766.3	361.43	438.56	1851.3	330.43	430.01	1793	289.65	434.02	1820.2	397.18	436.72	1892.9	123.87	428.86	1918.3	144.75	344.29	1847.1	75.499	373.89	1873.2	52.745	346.11	1861.7	48.918	409.76	2006.7	109.11	469.4	2048.8	142.14	370.65	2080.2	175.8	417.22	1449.7	674.81	159.4	1517	568.19	162.54	1452.4	586.74	183.3	1514.4	653.7	134.62	1487	491.28	179.94	1517.1	508.97	309.04	1403.2	374.42	180.38	1440.2	271.68	199.82	1382.7	301.17	194.43	1460.5	346.35	187.42	1344	109.95	233.62	1359.2	103.82	325.88	1266.7	80.776	289.32	1277.9	53.147	319.43	1263.3	54.299	259.5	1432.7	42.604	195.79	1475.8	36.305	301.81	1525.6	48.148	240.31	1471.2	1473.4	297.14	1408.8	1209.1	281.85
486	2.0208	1673	1168.8	296.2	1550.5	1420.6	446.07	1554	1419.6	136.03	1624.9	1712.6	283.91	1639.2	1009.1	396.01	1624.2	1012.9	148.38	1413.4	1022.5	332.77	1415.6	1031.7	242.62	1570.2	917.95	474.11	1547.4	921.24	86.086	1546.5	1080.9	449.49	1510.2	1104.7	120.79	1394.6	992.49	281.64	1661.7	683.18	461.13	1765.4	618.01	420.36	1691.5	595.66	436.62	1729.9	698.86	443.79	1774.6	543.54	418.71	1768.3	523.14	293.6	1774.5	360.64	437.86	1860.1	331.22	429.32	1802.5	289.37	433.18	1827.7	397.39	436.18	1905.7	125.26	427.49	1930.7	147.07	343.09	1860.9	76.248	372.38	1887.5	54.161	344.49	1876	49.769	408.06	2019.8	112.5	467.95	2061.1	147	369.46	2091.8	181.04	416.23	1453.3	674.67	159.65	1520	567.75	162.52	1455.7	586.57	183.5	1517.8	653.31	134.62	1489.8	490.94	179.91	1520.5	508.45	308.88	1405.3	374.57	180.44	1441.6	271.6	199.78	1384.5	301.42	194.65	1462.4	346.13	187.33	1344.4	110.41	233.76	1359.8	104.23	325.98	1267	81.356	289.59	1278.1	53.629	319.62	1263.4	54.877	259.68	1432.7	42.575	195.82	1476	36.258	301.78	1525.8	47.793	240.21	1476.3	1472.6	297.39	1413.8	1208.4	282.24
487	2.025	1677.9	1168	296.05	1555.9	1419.7	446.25	1559	1418.8	136.17	1630.2	1711.7	284.07	1644.8	1008.4	395.82	1628.9	1012.2	148.2	1418.7	1021.5	333.2	1420.6	1030.8	243.07	1576	917.09	474	1551.7	920.65	86.046	1552.1	1080	449.6	1514.7	1104	120.89	1399.8	991.57	282.1	1667.1	682.26	461.08	1770.6	616.94	420.04	1696.8	594.7	436.49	1735.3	697.85	443.53	1779.9	542.82	418.43	1773.3	522.35	293.19	1782.6	359.86	437.13	1868.8	331.98	428.64	1811.9	289.1	432.31	1835.2	397.55	435.67	1918.2	126.66	426.07	1942.8	149.42	341.86	1874.3	77.064	370.77	1901.4	55.655	342.78	1890	50.679	406.27	2032.6	115.84	466.5	2073.2	151.8	368.3	2103.1	186.19	415.27	1456.9	674.51	159.91	1523.1	567.3	162.5	1459	586.4	183.7	1521.2	652.91	134.63	1492.6	490.59	179.87	1523.8	507.92	308.72	1407.4	374.73	180.5	1443.1	271.52	199.73	1386.3	301.68	194.87	1464.4	345.92	187.23	1344.9	110.9	233.89	1360.3	104.65	326.07	1267.3	81.981	289.85	1278.3	54.163	319.8	1263.6	55.495	259.86	1432.8	42.544	195.85	1476.2	36.218	301.74	1526	47.444	240.12	1481.5	1471.8	297.66	1418.8	1207.6	282.63
